<svg xml:space="preserve" fill-rule="evenodd" stroke-linejoin="round" stroke-miterlimit="2" clip-rule="evenodd" viewBox="0 0 60 60">
  <path fill-rule="nonzero" d="M27.90366 40.66411h4.25928l.638892-3.19446c.425928-.17676012.82630032-.36416844 1.19898732-.56009532.372687-.19379724.75389256-.43444656 1.14361668-.71768868l3.087978.958338 2.12964-3.620388-2.449086-2.12964c.07027812-.49620612.106482-.958338.106482-1.384266s-.03620388-.88805988-.106482-1.384266l2.449086-2.12964-2.12964-3.620388-3.087978.958338c-.38972412-.28324212-.77092968-.52389144-1.14361668-.71768868-.372687-.19592688-.77305932-.3833352-1.19898732-.56009532l-.638892-3.19446h-4.25928l-.638892 3.19446c-.425928.17676012-.82417068.36416844-1.19685768.56009532-.372687.19379724-.7560222.43444656-1.14574632.71768868l-3.087978-.958338-2.12964 3.620388 2.449086 2.12964c-.07027812.49620612-.106482.958338-.106482 1.384266s.03620388.88805988.106482 1.384266l-2.449086 2.12964 2.12964 3.620388 3.087978-.958338c.38972412.28324212.77305932.52389144 1.14574632.71768868.372687.19592688.77092968.3833352 1.19685768.56009532l.638892 3.19446Zm2.12964-6.38892c-1.171302 0-2.17436244-.41740944-3.00705168-1.25009868C26.19142944 32.19027244 25.77402 31.187212 25.77402 30.01591s.41740944-2.17436244 1.25222832-3.00918132C27.85893756 26.17403944 28.861998 25.75663 30.0333 25.75663s2.17436244.41740944 3.00918132 1.25009868C33.87517056 27.84154756 34.29258 28.844608 34.29258 30.01591s-.41740944 2.17436244-1.25009868 3.00918132C32.20766244 33.85778056 31.204602 34.27519 30.0333 34.27519ZM15.12582 49.18267c-1.171302 0-2.17436244-.41740944-3.00705168-1.25009868C11.28394944 47.09775244 10.86654 46.094692 10.86654 44.92339V15.10843c0-1.171302.41740944-2.17436244 1.25222832-3.00918132C12.95145756 11.26655944 13.954518 10.84915 15.12582 10.84915h29.81496c1.171302 0 2.17436244.41740944 3.00918132 1.25009868C48.78265056 12.93406756 49.20006 13.937128 49.20006 15.10843v29.81496c0 1.171302-.41740944 2.17436244-1.25009868 3.00918132C47.11514244 48.76526056 46.112082 49.18267 44.94078 49.18267H15.12582Zm0-4.25928h29.81496V15.10843H15.12582v29.81496Zm0-29.81496v29.81496-29.81496Z"/>
</svg>
