<svg xml:space="preserve" fill-rule="evenodd" stroke-linejoin="round" stroke-miterlimit="2" clip-rule="evenodd" viewBox="0 0 60 60">
  <path fill-rule="nonzero" d="m23.4 54-.96-7.68c-.5208-.1992-1.0104-.4392-1.4688-.72-.4608-.2808-.912-.5808-1.3512-.9l-7.14 3-6.6-11.4 6.18-4.68c-.0408-.2808-.06-.5496-.06-.8112v-1.6176c0-.2616.0192-.5304.06-.8112L5.88 23.7l6.6-11.4 7.14 3c.4392-.3192.9-.6192 1.38-.9.48-.2808.96-.5208 1.44-.72L23.4 6h13.2l.96 7.68c.5208.1992 1.0104.4392 1.4712.72.4584.2808.9096.5808 1.3488.9l7.14-3 6.6 11.4-6.18 4.68c.0408.2808.06.5496.06.8112v1.6176c0 .2616-.0408.5304-.12.8112l6.18 4.68-6.6 11.4-7.08-3c-.4392.3192-.9.6192-1.38.9-.48.2808-.96.5208-1.44.72L36.6 54H23.4Zm4.2-4.8h4.74l.84-6.36c1.2408-.3192 2.3904-.7896 3.4512-1.4088 1.0584-.6216 2.028-1.3704 2.9088-2.2512l5.94 2.46 2.34-4.08-5.16-3.9c.1992-.5592.3408-1.1496.42-1.7688.0792-.6216.12-1.2504.12-1.8912s-.0408-1.2696-.12-1.8912c-.0792-.6192-.2208-1.2096-.42-1.7688l5.16-3.9-2.34-4.08-5.94 2.52c-.8808-.9192-1.8504-1.6896-2.9088-2.3088-1.0608-.6216-2.2104-1.092-3.4512-1.4112l-.78-6.36h-4.74l-.84 6.36c-1.2408.3192-2.3904.7896-3.4488 1.4112-1.0608.6192-2.0304 1.368-2.9112 2.2488l-5.94-2.46-2.34 4.08 5.16 3.84c-.1992.6-.3408 1.2-.42 1.8-.0792.6-.12 1.2408-.12 1.92 0 .6408.0408 1.26.12 1.86.0792.6.2208 1.2.42 1.8l-5.16 3.9 2.34 4.08 5.94-2.52c.8808.9192 1.8504 1.6896 2.9112 2.3112 1.0584.6192 2.208 1.0896 3.4488 1.4088l.78 6.36Zm2.52-10.8c2.3208 0 4.3008-.8208 5.94-2.46 1.6392-1.6392 2.46-3.6192 2.46-5.94s-.8208-4.3008-2.46-5.94c-1.6392-1.6392-3.6192-2.46-5.94-2.46-2.3592 0-4.3488.8208-5.9688 2.46S21.72 27.6792 21.72 30s.8112 4.3008 2.4312 5.94c1.62 1.6392 3.6096 2.46 5.9688 2.46Z"/>
</svg>
