<svg xml:space="preserve" fill-rule="evenodd" stroke-linejoin="round" stroke-miterlimit="2" clip-rule="evenodd" viewBox="0 0 60 60">
  <path fill-rule="nonzero" d="M18.03327 51.6c-1.32 0-2.4504-.4704-3.3888-1.4088-.9408-.9408-1.4112-2.0712-1.4112-3.3912V20.4c0-1.32.4704-2.4504 1.4112-3.3912.9384-.9384 2.0688-1.4088 3.3888-1.4088h4.8v-4.8c0-1.32.4704-2.4504 1.4112-3.3912C25.18287 6.4704 26.31327 6 27.63327 6h4.8c1.32 0 2.4504.4704 3.3912 1.4088.9384.9408 1.4088 2.0712 1.4088 3.3912v4.8h4.8c1.32 0 2.4504.4704 3.3912 1.4088.9384.9408 1.4088 2.0712 1.4088 3.3912v26.4c0 1.32-.4704 2.4504-1.4088 3.3912-.9408.9384-2.0712 1.4088-3.3912 1.4088 0 .6792-.2304 1.2504-.6888 1.7088-.4608.4608-1.032.6912-1.7112.6912s-1.2504-.2304-1.7088-.6912c-.4608-.4584-.6912-1.0296-.6912-1.7088h-14.4c0 .6792-.2304 1.2504-.6888 1.7088-.4608.4608-1.032.6912-1.7112.6912s-1.2504-.2304-1.7088-.6912c-.4608-.4584-.6912-1.0296-.6912-1.7088Zm0-4.8h24V20.4h-24v26.4Zm4.8-2.4h4.8V22.8h-4.8v21.6Zm9.6 0h4.8V22.8h-4.8v21.6Zm-4.8-28.8h4.8v-4.8h-4.8v4.8Z"/>
</svg>
