<svg xml:space="preserve" fill-rule="evenodd" stroke-linejoin="round" stroke-miterlimit="2" clip-rule="evenodd" viewBox="0 0 60 60">
  <path fill-rule="nonzero" d="M27.633 43.386h4.8V25.184h-4.8v18.202ZM30 23.005c.905 0 1.664-.307 2.277-.919.612-.613.918-1.372.918-2.277s-.306-1.664-.918-2.277c-.613-.612-1.372-.918-2.277-.918s-1.664.306-2.277.918c-.612.613-.918 1.372-.918 2.277s.306 1.664.918 2.277c.613.612 1.372.919 2.277.919Zm.033 31.011c-3.32 0-6.44-.63-9.36-1.89-2.92-1.26-5.46-2.97-7.62-5.13-2.16-2.16-3.87-4.7-5.13-7.62-1.26-2.92-1.89-6.04-1.89-9.36 0-3.32.63-6.44 1.89-9.36 1.26-2.92 2.97-5.46 5.13-7.62 2.16-2.16 4.7-3.87 7.62-5.13 2.92-1.26 6.04-1.89 9.36-1.89 3.32 0 6.44.63 9.36 1.89 2.92 1.26 5.46 2.97 7.62 5.13 2.16 2.16 3.87 4.7 5.13 7.62 1.26 2.92 1.89 6.04 1.89 9.36 0 3.32-.63 6.44-1.89 9.36-1.26 2.92-2.97 5.46-5.13 7.62-2.16 2.16-4.7 3.87-7.62 5.13-2.92 1.26-6.04 1.89-9.36 1.89Zm0-4.8c5.36 0 9.9-1.86 13.62-5.58 3.72-3.72 5.58-8.26 5.58-13.62 0-5.36-1.86-9.9-5.58-13.62-3.72-3.72-8.26-5.58-13.62-5.58-5.36 0-9.9 1.86-13.62 5.58-3.72 3.72-5.58 8.26-5.58 13.62 0 5.36 1.86 9.9 5.58 13.62 3.72 3.72 8.26 5.58 13.62 5.58Z"/>
</svg>
