<svg xml:space="preserve" fill-rule="evenodd" stroke-linejoin="round" stroke-miterlimit="2" clip-rule="evenodd" viewBox="0 0 60 60">
  <path fill-rule="nonzero" d="M39.588 27.6159h-24v4.8h24v-4.8Zm-9.336-4.98 7.38 7.38-7.38 7.38 3.36 3.42 10.8-10.8-10.8-10.8-3.36 3.42ZM30 6.0159c3.3192 0 6.4392.6288 9.36 1.8912 2.9208 1.2576 5.46 2.9688 7.62 5.1288s3.8688 4.6992 5.1288 7.62c1.26 2.9208 1.8912 6.0408 1.8912 9.36 0 3.3192-.6312 6.4392-1.8912 9.36s-2.9688 5.46-5.1288 7.62-4.6992 3.8688-7.62 5.1312c-2.9208 1.26-6.0408 1.8888-9.36 1.8888-3.3192 0-6.4392-.6288-9.36-1.8888-2.9208-1.2624-5.46-2.9712-7.62-5.1312-2.16-2.16-3.8712-4.6992-5.1312-7.62C6.6288 36.4551 6 33.3351 6 30.0159c0-3.3192.6288-6.4392 1.8888-9.36s2.9712-5.46 5.1312-7.62c2.16-2.16 4.6992-3.8712 7.62-5.1288 2.9208-1.2624 6.0408-1.8912 9.36-1.8912Zm0 4.8c-5.3592 0-9.9 1.86-13.62 5.58-3.72 3.72-5.58 8.2608-5.58 13.62 0 5.3592 1.86 9.9 5.58 13.62 3.72 3.72 8.2608 5.58 13.62 5.58 5.3592 0 9.9-1.86 13.62-5.58 3.72-3.72 5.58-8.2608 5.58-13.62 0-5.3592-1.86-9.9-5.58-13.62-3.72-3.72-8.2608-5.58-13.62-5.58Z"/>
</svg>
