<svg xml:space="preserve" fill-rule="evenodd" stroke-linejoin="round" stroke-miterlimit="2" clip-rule="evenodd" viewBox="0 0 60 60">
  <path d="M15.6 46.8c-1.32 0-2.4504-.4704-3.3888-1.4088C11.2704 44.4504 10.8 43.32 10.8 42V25.2c0-1.32.4704-2.4504 1.4112-3.3912C13.1496 20.8704 14.28 20.4 15.6 20.4h7.2c0-1.9992.7008-3.7008 2.1-5.1 1.3992-1.3992 3.1008-2.1 5.1-2.1 1.9992 0 3.7008.7008 5.1 2.1 1.3992 1.3992 2.1 3.1008 2.1 5.1h7.2c1.32 0 2.4504.4704 3.3912 1.4088C48.7296 22.7496 49.2 23.88 49.2 25.2V42c0 1.32-.4704 2.4504-1.4088 3.3912C46.8504 46.3296 45.72 46.8 44.4 46.8H15.6Zm6-21.6V42h16.8V25.2H21.6ZM42 42h2.4V25.2H42V42Zm-24 0V25.2h-2.4V42H18Zm8.4-21.6h7.2c0-1.0392-.3408-1.9008-1.02-2.58S31.0392 16.8 30 16.8c-1.0392 0-1.9008.3408-2.58 1.02s-1.02 1.5408-1.02 2.58ZM18 42h3.6H18Zm24 0h-3.6H42Zm-24 0h-2.4H18Zm3.6 0h16.8-16.8ZM42 42h2.4H42Z"/>
</svg>
